<svg xmlns="http://www.w3.org/2000/svg" xmlns:xlink="http://www.w3.org/1999/xlink" width="500" zoomAndPan="magnify" viewBox="0 0 375 374.999991" height="500" preserveAspectRatio="xMidYMid meet" version="1.0"><defs><g/></defs><g fill="#000000" fill-opacity="1"><g transform="translate(77.939999, 223.677015)"><g><path d="M 124.734375 -9.453125 C 121.835938 -5.171875 118.941406 -2.082031 116.046875 -0.1875 C 113.148438 1.695312 109.304688 2.640625 104.515625 2.640625 C 99.347656 2.640625 95.09375 1.128906 91.75 -1.890625 C 88.414062 -4.910156 85.929688 -10.203125 84.296875 -17.765625 L 80.140625 -36.671875 C 78.628906 -43.222656 77.210938 -48.257812 75.890625 -51.78125 C 74.566406 -55.3125 72.582031 -58.144531 69.9375 -60.28125 C 67.289062 -62.425781 63.570312 -63.5 58.78125 -63.5 L 40.828125 -63.5 L 40.828125 -20.03125 C 40.828125 -15.25 41.203125 -11.785156 41.953125 -9.640625 C 42.710938 -7.492188 44.128906 -6.039062 46.203125 -5.28125 C 48.285156 -4.53125 51.597656 -4.03125 56.140625 -3.78125 L 56.140625 0 C 50.335938 -0.375 42.332031 -0.5625 32.125 -0.5625 C 21.289062 -0.5625 13.226562 -0.375 7.9375 0 L 7.9375 -3.78125 C 12.46875 -4.03125 15.773438 -4.53125 17.859375 -5.28125 C 19.941406 -6.039062 21.359375 -7.492188 22.109375 -9.640625 C 22.867188 -11.785156 23.25 -15.25 23.25 -20.03125 L 23.25 -113.78125 C 23.25 -118.5625 22.867188 -122.023438 22.109375 -124.171875 C 21.359375 -126.316406 19.941406 -127.765625 17.859375 -128.515625 C 15.773438 -129.273438 12.46875 -129.78125 7.9375 -130.03125 L 7.9375 -133.8125 C 13.226562 -133.4375 20.914062 -133.25 31 -133.25 L 51.40625 -133.4375 C 53.800781 -133.5625 56.507812 -133.625 59.53125 -133.625 C 74.144531 -133.625 85.390625 -130.566406 93.265625 -124.453125 C 101.140625 -118.347656 105.078125 -110.441406 105.078125 -100.734375 C 105.078125 -95.816406 103.910156 -90.867188 101.578125 -85.890625 C 99.253906 -80.921875 95.347656 -76.453125 89.859375 -72.484375 C 84.378906 -68.515625 77.234375 -65.835938 68.421875 -64.453125 L 70.6875 -64.078125 C 79 -62.679688 85.046875 -60.15625 88.828125 -56.5 C 92.609375 -52.851562 95.378906 -47.0625 97.140625 -39.125 L 101.875 -19.84375 C 103.132812 -14.050781 104.457031 -10.019531 105.84375 -7.75 C 107.226562 -5.476562 109.117188 -4.34375 111.515625 -4.34375 C 113.648438 -4.34375 115.441406 -4.910156 116.890625 -6.046875 C 118.335938 -7.179688 120.007812 -9.007812 121.90625 -11.53125 Z M 54.8125 -130.03125 C 50.90625 -130.03125 47.972656 -129.585938 46.015625 -128.703125 C 44.066406 -127.828125 42.710938 -126.253906 41.953125 -123.984375 C 41.203125 -121.710938 40.828125 -118.3125 40.828125 -113.78125 L 40.828125 -67.28125 L 53.484375 -67.28125 C 65.960938 -67.28125 74.53125 -70.050781 79.1875 -75.59375 C 83.851562 -81.144531 86.1875 -88.832031 86.1875 -98.65625 C 86.1875 -108.988281 83.726562 -116.800781 78.8125 -122.09375 C 73.894531 -127.382812 65.894531 -130.03125 54.8125 -130.03125 Z M 54.8125 -130.03125 "/></g></g></g><g fill="#ffffff" fill-opacity="1"><g transform="translate(166.662706, 288.594835)"><g><path d="M 124.734375 -9.453125 C 121.835938 -5.171875 118.941406 -2.082031 116.046875 -0.1875 C 113.148438 1.695312 109.304688 2.640625 104.515625 2.640625 C 99.347656 2.640625 95.09375 1.128906 91.75 -1.890625 C 88.414062 -4.910156 85.929688 -10.203125 84.296875 -17.765625 L 80.140625 -36.671875 C 78.628906 -43.222656 77.210938 -48.257812 75.890625 -51.78125 C 74.566406 -55.3125 72.582031 -58.144531 69.9375 -60.28125 C 67.289062 -62.425781 63.570312 -63.5 58.78125 -63.5 L 40.828125 -63.5 L 40.828125 -20.03125 C 40.828125 -15.25 41.203125 -11.785156 41.953125 -9.640625 C 42.710938 -7.492188 44.128906 -6.039062 46.203125 -5.28125 C 48.285156 -4.53125 51.597656 -4.03125 56.140625 -3.78125 L 56.140625 0 C 50.335938 -0.375 42.332031 -0.5625 32.125 -0.5625 C 21.289062 -0.5625 13.226562 -0.375 7.9375 0 L 7.9375 -3.78125 C 12.46875 -4.03125 15.773438 -4.53125 17.859375 -5.28125 C 19.941406 -6.039062 21.359375 -7.492188 22.109375 -9.640625 C 22.867188 -11.785156 23.25 -15.25 23.25 -20.03125 L 23.25 -113.78125 C 23.25 -118.5625 22.867188 -122.023438 22.109375 -124.171875 C 21.359375 -126.316406 19.941406 -127.765625 17.859375 -128.515625 C 15.773438 -129.273438 12.46875 -129.78125 7.9375 -130.03125 L 7.9375 -133.8125 C 13.226562 -133.4375 20.914062 -133.25 31 -133.25 L 51.40625 -133.4375 C 53.800781 -133.5625 56.507812 -133.625 59.53125 -133.625 C 74.144531 -133.625 85.390625 -130.566406 93.265625 -124.453125 C 101.140625 -118.347656 105.078125 -110.441406 105.078125 -100.734375 C 105.078125 -95.816406 103.910156 -90.867188 101.578125 -85.890625 C 99.253906 -80.921875 95.347656 -76.453125 89.859375 -72.484375 C 84.378906 -68.515625 77.234375 -65.835938 68.421875 -64.453125 L 70.6875 -64.078125 C 79 -62.679688 85.046875 -60.15625 88.828125 -56.5 C 92.609375 -52.851562 95.378906 -47.0625 97.140625 -39.125 L 101.875 -19.84375 C 103.132812 -14.050781 104.457031 -10.019531 105.84375 -7.75 C 107.226562 -5.476562 109.117188 -4.34375 111.515625 -4.34375 C 113.648438 -4.34375 115.441406 -4.910156 116.890625 -6.046875 C 118.335938 -7.179688 120.007812 -9.007812 121.90625 -11.53125 Z M 54.8125 -130.03125 C 50.90625 -130.03125 47.972656 -129.585938 46.015625 -128.703125 C 44.066406 -127.828125 42.710938 -126.253906 41.953125 -123.984375 C 41.203125 -121.710938 40.828125 -118.3125 40.828125 -113.78125 L 40.828125 -67.28125 L 53.484375 -67.28125 C 65.960938 -67.28125 74.53125 -70.050781 79.1875 -75.59375 C 83.851562 -81.144531 86.1875 -88.832031 86.1875 -98.65625 C 86.1875 -108.988281 83.726562 -116.800781 78.8125 -122.09375 C 73.894531 -127.382812 65.894531 -130.03125 54.8125 -130.03125 Z M 54.8125 -130.03125 "/></g></g></g><g fill="#000000" fill-opacity="1"><g transform="translate(160.770608, 288.18282)"><g><path d="M 124.734375 -9.453125 C 121.835938 -5.171875 118.941406 -2.082031 116.046875 -0.1875 C 113.148438 1.695312 109.304688 2.640625 104.515625 2.640625 C 99.347656 2.640625 95.09375 1.128906 91.75 -1.890625 C 88.414062 -4.910156 85.929688 -10.203125 84.296875 -17.765625 L 80.140625 -36.671875 C 78.628906 -43.222656 77.210938 -48.257812 75.890625 -51.78125 C 74.566406 -55.3125 72.582031 -58.144531 69.9375 -60.28125 C 67.289062 -62.425781 63.570312 -63.5 58.78125 -63.5 L 40.828125 -63.5 L 40.828125 -20.03125 C 40.828125 -15.25 41.203125 -11.785156 41.953125 -9.640625 C 42.710938 -7.492188 44.128906 -6.039062 46.203125 -5.28125 C 48.285156 -4.53125 51.597656 -4.03125 56.140625 -3.78125 L 56.140625 0 C 50.335938 -0.375 42.332031 -0.5625 32.125 -0.5625 C 21.289062 -0.5625 13.226562 -0.375 7.9375 0 L 7.9375 -3.78125 C 12.46875 -4.03125 15.773438 -4.53125 17.859375 -5.28125 C 19.941406 -6.039062 21.359375 -7.492188 22.109375 -9.640625 C 22.867188 -11.785156 23.25 -15.25 23.25 -20.03125 L 23.25 -113.78125 C 23.25 -118.5625 22.867188 -122.023438 22.109375 -124.171875 C 21.359375 -126.316406 19.941406 -127.765625 17.859375 -128.515625 C 15.773438 -129.273438 12.46875 -129.78125 7.9375 -130.03125 L 7.9375 -133.8125 C 13.226562 -133.4375 20.914062 -133.25 31 -133.25 L 51.40625 -133.4375 C 53.800781 -133.5625 56.507812 -133.625 59.53125 -133.625 C 74.144531 -133.625 85.390625 -130.566406 93.265625 -124.453125 C 101.140625 -118.347656 105.078125 -110.441406 105.078125 -100.734375 C 105.078125 -95.816406 103.910156 -90.867188 101.578125 -85.890625 C 99.253906 -80.921875 95.347656 -76.453125 89.859375 -72.484375 C 84.378906 -68.515625 77.234375 -65.835938 68.421875 -64.453125 L 70.6875 -64.078125 C 79 -62.679688 85.046875 -60.15625 88.828125 -56.5 C 92.609375 -52.851562 95.378906 -47.0625 97.140625 -39.125 L 101.875 -19.84375 C 103.132812 -14.050781 104.457031 -10.019531 105.84375 -7.75 C 107.226562 -5.476562 109.117188 -4.34375 111.515625 -4.34375 C 113.648438 -4.34375 115.441406 -4.910156 116.890625 -6.046875 C 118.335938 -7.179688 120.007812 -9.007812 121.90625 -11.53125 Z M 54.8125 -130.03125 C 50.90625 -130.03125 47.972656 -129.585938 46.015625 -128.703125 C 44.066406 -127.828125 42.710938 -126.253906 41.953125 -123.984375 C 41.203125 -121.710938 40.828125 -118.3125 40.828125 -113.78125 L 40.828125 -67.28125 L 53.484375 -67.28125 C 65.960938 -67.28125 74.53125 -70.050781 79.1875 -75.59375 C 83.851562 -81.144531 86.1875 -88.832031 86.1875 -98.65625 C 86.1875 -108.988281 83.726562 -116.800781 78.8125 -122.09375 C 73.894531 -127.382812 65.894531 -130.03125 54.8125 -130.03125 Z M 54.8125 -130.03125 "/></g></g></g></svg>