<svg xmlns="http://www.w3.org/2000/svg" xmlns:xlink="http://www.w3.org/1999/xlink" width="500" zoomAndPan="magnify" viewBox="0 0 375 374.999991" height="500" preserveAspectRatio="xMidYMid meet" version="1.0"><defs><g/></defs><g fill="#000000" fill-opacity="1"><g transform="translate(77.939999, 191.755006)"><g><path d="M 124.734375 -9.453125 C 121.835938 -5.171875 118.941406 -2.082031 116.046875 -0.1875 C 113.148438 1.695312 109.304688 2.640625 104.515625 2.640625 C 99.347656 2.640625 95.09375 1.128906 91.75 -1.890625 C 88.414062 -4.910156 85.929688 -10.203125 84.296875 -17.765625 L 80.140625 -36.671875 C 78.628906 -43.222656 77.210938 -48.257812 75.890625 -51.78125 C 74.566406 -55.3125 72.582031 -58.144531 69.9375 -60.28125 C 67.289062 -62.425781 63.570312 -63.5 58.78125 -63.5 L 40.828125 -63.5 L 40.828125 -20.03125 C 40.828125 -15.25 41.203125 -11.785156 41.953125 -9.640625 C 42.710938 -7.492188 44.128906 -6.039062 46.203125 -5.28125 C 48.285156 -4.53125 51.597656 -4.03125 56.140625 -3.78125 L 56.140625 0 C 50.335938 -0.375 42.332031 -0.5625 32.125 -0.5625 C 21.289062 -0.5625 13.226562 -0.375 7.9375 0 L 7.9375 -3.78125 C 12.46875 -4.03125 15.773438 -4.53125 17.859375 -5.28125 C 19.941406 -6.039062 21.359375 -7.492188 22.109375 -9.640625 C 22.867188 -11.785156 23.25 -15.25 23.25 -20.03125 L 23.25 -113.78125 C 23.25 -118.5625 22.867188 -122.023438 22.109375 -124.171875 C 21.359375 -126.316406 19.941406 -127.765625 17.859375 -128.515625 C 15.773438 -129.273438 12.46875 -129.78125 7.9375 -130.03125 L 7.9375 -133.8125 C 13.226562 -133.4375 20.914062 -133.25 31 -133.25 L 51.40625 -133.4375 C 53.800781 -133.5625 56.507812 -133.625 59.53125 -133.625 C 74.144531 -133.625 85.390625 -130.566406 93.265625 -124.453125 C 101.140625 -118.347656 105.078125 -110.441406 105.078125 -100.734375 C 105.078125 -95.816406 103.910156 -90.867188 101.578125 -85.890625 C 99.253906 -80.921875 95.347656 -76.453125 89.859375 -72.484375 C 84.378906 -68.515625 77.234375 -65.835938 68.421875 -64.453125 L 70.6875 -64.078125 C 79 -62.679688 85.046875 -60.15625 88.828125 -56.5 C 92.609375 -52.851562 95.378906 -47.0625 97.140625 -39.125 L 101.875 -19.84375 C 103.132812 -14.050781 104.457031 -10.019531 105.84375 -7.75 C 107.226562 -5.476562 109.117188 -4.34375 111.515625 -4.34375 C 113.648438 -4.34375 115.441406 -4.910156 116.890625 -6.046875 C 118.335938 -7.179688 120.007812 -9.007812 121.90625 -11.53125 Z M 54.8125 -130.03125 C 50.90625 -130.03125 47.972656 -129.585938 46.015625 -128.703125 C 44.066406 -127.828125 42.710938 -126.253906 41.953125 -123.984375 C 41.203125 -121.710938 40.828125 -118.3125 40.828125 -113.78125 L 40.828125 -67.28125 L 53.484375 -67.28125 C 65.960938 -67.28125 74.53125 -70.050781 79.1875 -75.59375 C 83.851562 -81.144531 86.1875 -88.832031 86.1875 -98.65625 C 86.1875 -108.988281 83.726562 -116.800781 78.8125 -122.09375 C 73.894531 -127.382812 65.894531 -130.03125 54.8125 -130.03125 Z M 54.8125 -130.03125 "/></g></g></g><g fill="#ffffff" fill-opacity="1"><g transform="translate(166.662706, 256.672783)"><g><path d="M 124.734375 -9.453125 C 121.835938 -5.171875 118.941406 -2.082031 116.046875 -0.1875 C 113.148438 1.695312 109.304688 2.640625 104.515625 2.640625 C 99.347656 2.640625 95.09375 1.128906 91.75 -1.890625 C 88.414062 -4.910156 85.929688 -10.203125 84.296875 -17.765625 L 80.140625 -36.671875 C 78.628906 -43.222656 77.210938 -48.257812 75.890625 -51.78125 C 74.566406 -55.3125 72.582031 -58.144531 69.9375 -60.28125 C 67.289062 -62.425781 63.570312 -63.5 58.78125 -63.5 L 40.828125 -63.5 L 40.828125 -20.03125 C 40.828125 -15.25 41.203125 -11.785156 41.953125 -9.640625 C 42.710938 -7.492188 44.128906 -6.039062 46.203125 -5.28125 C 48.285156 -4.53125 51.597656 -4.03125 56.140625 -3.78125 L 56.140625 0 C 50.335938 -0.375 42.332031 -0.5625 32.125 -0.5625 C 21.289062 -0.5625 13.226562 -0.375 7.9375 0 L 7.9375 -3.78125 C 12.46875 -4.03125 15.773438 -4.53125 17.859375 -5.28125 C 19.941406 -6.039062 21.359375 -7.492188 22.109375 -9.640625 C 22.867188 -11.785156 23.25 -15.25 23.25 -20.03125 L 23.25 -113.78125 C 23.25 -118.5625 22.867188 -122.023438 22.109375 -124.171875 C 21.359375 -126.316406 19.941406 -127.765625 17.859375 -128.515625 C 15.773438 -129.273438 12.46875 -129.78125 7.9375 -130.03125 L 7.9375 -133.8125 C 13.226562 -133.4375 20.914062 -133.25 31 -133.25 L 51.40625 -133.4375 C 53.800781 -133.5625 56.507812 -133.625 59.53125 -133.625 C 74.144531 -133.625 85.390625 -130.566406 93.265625 -124.453125 C 101.140625 -118.347656 105.078125 -110.441406 105.078125 -100.734375 C 105.078125 -95.816406 103.910156 -90.867188 101.578125 -85.890625 C 99.253906 -80.921875 95.347656 -76.453125 89.859375 -72.484375 C 84.378906 -68.515625 77.234375 -65.835938 68.421875 -64.453125 L 70.6875 -64.078125 C 79 -62.679688 85.046875 -60.15625 88.828125 -56.5 C 92.609375 -52.851562 95.378906 -47.0625 97.140625 -39.125 L 101.875 -19.84375 C 103.132812 -14.050781 104.457031 -10.019531 105.84375 -7.75 C 107.226562 -5.476562 109.117188 -4.34375 111.515625 -4.34375 C 113.648438 -4.34375 115.441406 -4.910156 116.890625 -6.046875 C 118.335938 -7.179688 120.007812 -9.007812 121.90625 -11.53125 Z M 54.8125 -130.03125 C 50.90625 -130.03125 47.972656 -129.585938 46.015625 -128.703125 C 44.066406 -127.828125 42.710938 -126.253906 41.953125 -123.984375 C 41.203125 -121.710938 40.828125 -118.3125 40.828125 -113.78125 L 40.828125 -67.28125 L 53.484375 -67.28125 C 65.960938 -67.28125 74.53125 -70.050781 79.1875 -75.59375 C 83.851562 -81.144531 86.1875 -88.832031 86.1875 -98.65625 C 86.1875 -108.988281 83.726562 -116.800781 78.8125 -122.09375 C 73.894531 -127.382812 65.894531 -130.03125 54.8125 -130.03125 Z M 54.8125 -130.03125 "/></g></g></g><g fill="#000000" fill-opacity="1"><g transform="translate(160.770608, 256.260765)"><g><path d="M 124.734375 -9.453125 C 121.835938 -5.171875 118.941406 -2.082031 116.046875 -0.1875 C 113.148438 1.695312 109.304688 2.640625 104.515625 2.640625 C 99.347656 2.640625 95.09375 1.128906 91.75 -1.890625 C 88.414062 -4.910156 85.929688 -10.203125 84.296875 -17.765625 L 80.140625 -36.671875 C 78.628906 -43.222656 77.210938 -48.257812 75.890625 -51.78125 C 74.566406 -55.3125 72.582031 -58.144531 69.9375 -60.28125 C 67.289062 -62.425781 63.570312 -63.5 58.78125 -63.5 L 40.828125 -63.5 L 40.828125 -20.03125 C 40.828125 -15.25 41.203125 -11.785156 41.953125 -9.640625 C 42.710938 -7.492188 44.128906 -6.039062 46.203125 -5.28125 C 48.285156 -4.53125 51.597656 -4.03125 56.140625 -3.78125 L 56.140625 0 C 50.335938 -0.375 42.332031 -0.5625 32.125 -0.5625 C 21.289062 -0.5625 13.226562 -0.375 7.9375 0 L 7.9375 -3.78125 C 12.46875 -4.03125 15.773438 -4.53125 17.859375 -5.28125 C 19.941406 -6.039062 21.359375 -7.492188 22.109375 -9.640625 C 22.867188 -11.785156 23.25 -15.25 23.25 -20.03125 L 23.25 -113.78125 C 23.25 -118.5625 22.867188 -122.023438 22.109375 -124.171875 C 21.359375 -126.316406 19.941406 -127.765625 17.859375 -128.515625 C 15.773438 -129.273438 12.46875 -129.78125 7.9375 -130.03125 L 7.9375 -133.8125 C 13.226562 -133.4375 20.914062 -133.25 31 -133.25 L 51.40625 -133.4375 C 53.800781 -133.5625 56.507812 -133.625 59.53125 -133.625 C 74.144531 -133.625 85.390625 -130.566406 93.265625 -124.453125 C 101.140625 -118.347656 105.078125 -110.441406 105.078125 -100.734375 C 105.078125 -95.816406 103.910156 -90.867188 101.578125 -85.890625 C 99.253906 -80.921875 95.347656 -76.453125 89.859375 -72.484375 C 84.378906 -68.515625 77.234375 -65.835938 68.421875 -64.453125 L 70.6875 -64.078125 C 79 -62.679688 85.046875 -60.15625 88.828125 -56.5 C 92.609375 -52.851562 95.378906 -47.0625 97.140625 -39.125 L 101.875 -19.84375 C 103.132812 -14.050781 104.457031 -10.019531 105.84375 -7.75 C 107.226562 -5.476562 109.117188 -4.34375 111.515625 -4.34375 C 113.648438 -4.34375 115.441406 -4.910156 116.890625 -6.046875 C 118.335938 -7.179688 120.007812 -9.007812 121.90625 -11.53125 Z M 54.8125 -130.03125 C 50.90625 -130.03125 47.972656 -129.585938 46.015625 -128.703125 C 44.066406 -127.828125 42.710938 -126.253906 41.953125 -123.984375 C 41.203125 -121.710938 40.828125 -118.3125 40.828125 -113.78125 L 40.828125 -67.28125 L 53.484375 -67.28125 C 65.960938 -67.28125 74.53125 -70.050781 79.1875 -75.59375 C 83.851562 -81.144531 86.1875 -88.832031 86.1875 -98.65625 C 86.1875 -108.988281 83.726562 -116.800781 78.8125 -122.09375 C 73.894531 -127.382812 65.894531 -130.03125 54.8125 -130.03125 Z M 54.8125 -130.03125 "/></g></g></g><g fill="#000000" fill-opacity="1"><g transform="translate(49.441639, 314.321288)"><g><path d="M 6.890625 -2.328125 L 2.03125 -2.328125 L 0.984375 0 L 0.03125 0 L 4.015625 -8.71875 L 4.921875 -8.71875 L 8.90625 0 L 7.9375 0 Z M 6.546875 -3.078125 L 4.453125 -7.765625 L 2.359375 -3.078125 Z M 6.546875 -3.078125 "/></g></g></g><g fill="#000000" fill-opacity="1"><g transform="translate(63.893664, 314.321288)"><g><path d="M 10.46875 -8.71875 L 10.46875 0 L 9.59375 0 L 9.59375 -6.96875 L 6.171875 -1.109375 L 5.734375 -1.109375 L 2.296875 -6.9375 L 2.296875 0 L 1.421875 0 L 1.421875 -8.71875 L 2.171875 -8.71875 L 5.96875 -2.25 L 9.71875 -8.71875 Z M 10.46875 -8.71875 "/></g></g></g><g fill="#000000" fill-opacity="1"><g transform="translate(81.310463, 314.321288)"><g><path d="M 5.234375 0.078125 C 4.367188 0.078125 3.582031 -0.113281 2.875 -0.5 C 2.175781 -0.882812 1.628906 -1.410156 1.234375 -2.078125 C 0.835938 -2.753906 0.640625 -3.515625 0.640625 -4.359375 C 0.640625 -5.191406 0.835938 -5.945312 1.234375 -6.625 C 1.628906 -7.300781 2.175781 -7.832031 2.875 -8.21875 C 3.582031 -8.601562 4.367188 -8.796875 5.234375 -8.796875 C 6.097656 -8.796875 6.875 -8.601562 7.5625 -8.21875 C 8.257812 -7.832031 8.804688 -7.300781 9.203125 -6.625 C 9.597656 -5.945312 9.796875 -5.191406 9.796875 -4.359375 C 9.796875 -3.515625 9.597656 -2.753906 9.203125 -2.078125 C 8.804688 -1.410156 8.257812 -0.882812 7.5625 -0.5 C 6.875 -0.113281 6.097656 0.078125 5.234375 0.078125 Z M 5.234375 -0.75 C 5.921875 -0.75 6.539062 -0.90625 7.09375 -1.21875 C 7.65625 -1.53125 8.09375 -1.960938 8.40625 -2.515625 C 8.71875 -3.066406 8.875 -3.679688 8.875 -4.359375 C 8.875 -5.035156 8.71875 -5.648438 8.40625 -6.203125 C 8.09375 -6.753906 7.65625 -7.1875 7.09375 -7.5 C 6.539062 -7.8125 5.921875 -7.96875 5.234375 -7.96875 C 4.546875 -7.96875 3.921875 -7.8125 3.359375 -7.5 C 2.796875 -7.1875 2.351562 -6.753906 2.03125 -6.203125 C 1.71875 -5.648438 1.5625 -5.035156 1.5625 -4.359375 C 1.5625 -3.679688 1.71875 -3.066406 2.03125 -2.515625 C 2.351562 -1.960938 2.796875 -1.53125 3.359375 -1.21875 C 3.921875 -0.90625 4.546875 -0.75 5.234375 -0.75 Z M 5.234375 -0.75 "/></g></g></g><g fill="#000000" fill-opacity="1"><g transform="translate(97.282251, 314.321288)"><g><path d="M 7.375 0 L 5.375 -2.796875 C 5.15625 -2.773438 4.925781 -2.765625 4.6875 -2.765625 L 2.34375 -2.765625 L 2.34375 0 L 1.421875 0 L 1.421875 -8.71875 L 4.6875 -8.71875 C 5.789062 -8.71875 6.660156 -8.453125 7.296875 -7.921875 C 7.929688 -7.390625 8.25 -6.660156 8.25 -5.734375 C 8.25 -5.046875 8.070312 -4.46875 7.71875 -4 C 7.375 -3.53125 6.882812 -3.191406 6.25 -2.984375 L 8.375 0 Z M 4.65625 -3.546875 C 5.519531 -3.546875 6.179688 -3.734375 6.640625 -4.109375 C 7.097656 -4.492188 7.328125 -5.035156 7.328125 -5.734375 C 7.328125 -6.429688 7.097656 -6.96875 6.640625 -7.34375 C 6.179688 -7.726562 5.519531 -7.921875 4.65625 -7.921875 L 2.34375 -7.921875 L 2.34375 -3.546875 Z M 4.65625 -3.546875 "/></g></g></g><g fill="#000000" fill-opacity="1"><g transform="translate(111.809017, 314.321288)"><g><path d="M 1.328125 -1.296875 C 1.523438 -1.296875 1.6875 -1.226562 1.8125 -1.09375 C 1.9375 -0.96875 2 -0.8125 2 -0.625 C 2 -0.519531 1.984375 -0.410156 1.953125 -0.296875 C 1.921875 -0.179688 1.875 -0.0507812 1.8125 0.09375 L 1.296875 1.8125 L 0.703125 1.8125 L 1.125 0.015625 C 0.988281 -0.0234375 0.878906 -0.101562 0.796875 -0.21875 C 0.710938 -0.332031 0.671875 -0.46875 0.671875 -0.625 C 0.671875 -0.8125 0.734375 -0.96875 0.859375 -1.09375 C 0.984375 -1.226562 1.140625 -1.296875 1.328125 -1.296875 Z M 1.328125 -1.296875 "/></g></g></g><g fill="#000000" fill-opacity="1"><g transform="translate(119.97021, 314.321288)"><g/></g></g><g fill="#000000" fill-opacity="1"><g transform="translate(128.75426, 314.321288)"><g><path d="M 10.46875 -8.71875 L 10.46875 0 L 9.59375 0 L 9.59375 -6.96875 L 6.171875 -1.109375 L 5.734375 -1.109375 L 2.296875 -6.9375 L 2.296875 0 L 1.421875 0 L 1.421875 -8.71875 L 2.171875 -8.71875 L 5.96875 -2.25 L 9.71875 -8.71875 Z M 10.46875 -8.71875 "/></g></g></g><g fill="#000000" fill-opacity="1"><g transform="translate(146.171056, 314.321288)"><g><path d="M 6.890625 -2.328125 L 2.03125 -2.328125 L 0.984375 0 L 0.03125 0 L 4.015625 -8.71875 L 4.921875 -8.71875 L 8.90625 0 L 7.9375 0 Z M 6.546875 -3.078125 L 4.453125 -7.765625 L 2.359375 -3.078125 Z M 6.546875 -3.078125 "/></g></g></g><g fill="#000000" fill-opacity="1"><g transform="translate(160.623078, 314.321288)"><g><path d="M 3.828125 0.078125 C 3.179688 0.078125 2.5625 -0.0234375 1.96875 -0.234375 C 1.375 -0.441406 0.910156 -0.71875 0.578125 -1.0625 L 0.953125 -1.765625 C 1.265625 -1.453125 1.679688 -1.195312 2.203125 -1 C 2.722656 -0.800781 3.265625 -0.703125 3.828125 -0.703125 C 4.609375 -0.703125 5.191406 -0.84375 5.578125 -1.125 C 5.972656 -1.414062 6.171875 -1.789062 6.171875 -2.25 C 6.171875 -2.601562 6.0625 -2.882812 5.84375 -3.09375 C 5.632812 -3.300781 5.375 -3.457031 5.0625 -3.5625 C 4.757812 -3.675781 4.332031 -3.800781 3.78125 -3.9375 C 3.125 -4.101562 2.597656 -4.257812 2.203125 -4.40625 C 1.816406 -4.5625 1.484375 -4.796875 1.203125 -5.109375 C 0.929688 -5.429688 0.796875 -5.863281 0.796875 -6.40625 C 0.796875 -6.84375 0.910156 -7.238281 1.140625 -7.59375 C 1.378906 -7.957031 1.738281 -8.25 2.21875 -8.46875 C 2.695312 -8.6875 3.296875 -8.796875 4.015625 -8.796875 C 4.503906 -8.796875 4.988281 -8.722656 5.46875 -8.578125 C 5.945312 -8.441406 6.363281 -8.253906 6.71875 -8.015625 L 6.40625 -7.28125 C 6.039062 -7.519531 5.648438 -7.695312 5.234375 -7.8125 C 4.816406 -7.9375 4.410156 -8 4.015625 -8 C 3.242188 -8 2.664062 -7.851562 2.28125 -7.5625 C 1.894531 -7.269531 1.703125 -6.890625 1.703125 -6.421875 C 1.703125 -6.078125 1.804688 -5.796875 2.015625 -5.578125 C 2.234375 -5.367188 2.5 -5.207031 2.8125 -5.09375 C 3.132812 -4.988281 3.566406 -4.867188 4.109375 -4.734375 C 4.742188 -4.578125 5.257812 -4.421875 5.65625 -4.265625 C 6.050781 -4.109375 6.382812 -3.875 6.65625 -3.5625 C 6.9375 -3.25 7.078125 -2.828125 7.078125 -2.296875 C 7.078125 -1.859375 6.957031 -1.457031 6.71875 -1.09375 C 6.476562 -0.738281 6.113281 -0.453125 5.625 -0.234375 C 5.132812 -0.0234375 4.535156 0.078125 3.828125 0.078125 Z M 3.828125 0.078125 "/></g></g></g><g fill="#000000" fill-opacity="1"><g transform="translate(173.804473, 314.321288)"><g><path d="M 5.203125 0.078125 C 4.335938 0.078125 3.554688 -0.113281 2.859375 -0.5 C 2.171875 -0.882812 1.628906 -1.410156 1.234375 -2.078125 C 0.835938 -2.753906 0.640625 -3.515625 0.640625 -4.359375 C 0.640625 -5.191406 0.835938 -5.945312 1.234375 -6.625 C 1.628906 -7.300781 2.175781 -7.832031 2.875 -8.21875 C 3.570312 -8.601562 4.351562 -8.796875 5.21875 -8.796875 C 5.863281 -8.796875 6.457031 -8.6875 7 -8.46875 C 7.550781 -8.25 8.019531 -7.929688 8.40625 -7.515625 L 7.828125 -6.9375 C 7.140625 -7.625 6.28125 -7.96875 5.25 -7.96875 C 4.550781 -7.96875 3.921875 -7.8125 3.359375 -7.5 C 2.796875 -7.1875 2.351562 -6.753906 2.03125 -6.203125 C 1.71875 -5.648438 1.5625 -5.035156 1.5625 -4.359375 C 1.5625 -3.679688 1.71875 -3.066406 2.03125 -2.515625 C 2.351562 -1.960938 2.796875 -1.53125 3.359375 -1.21875 C 3.921875 -0.90625 4.550781 -0.75 5.25 -0.75 C 6.289062 -0.75 7.148438 -1.097656 7.828125 -1.796875 L 8.40625 -1.203125 C 8.019531 -0.785156 7.550781 -0.46875 7 -0.25 C 6.445312 -0.03125 5.847656 0.078125 5.203125 0.078125 Z M 5.203125 0.078125 "/></g></g></g><g fill="#000000" fill-opacity="1"><g transform="translate(188.281409, 314.321288)"><g><path d="M 5.234375 0.078125 C 4.367188 0.078125 3.582031 -0.113281 2.875 -0.5 C 2.175781 -0.882812 1.628906 -1.410156 1.234375 -2.078125 C 0.835938 -2.753906 0.640625 -3.515625 0.640625 -4.359375 C 0.640625 -5.191406 0.835938 -5.945312 1.234375 -6.625 C 1.628906 -7.300781 2.175781 -7.832031 2.875 -8.21875 C 3.582031 -8.601562 4.367188 -8.796875 5.234375 -8.796875 C 6.097656 -8.796875 6.875 -8.601562 7.5625 -8.21875 C 8.257812 -7.832031 8.804688 -7.300781 9.203125 -6.625 C 9.597656 -5.945312 9.796875 -5.191406 9.796875 -4.359375 C 9.796875 -3.515625 9.597656 -2.753906 9.203125 -2.078125 C 8.804688 -1.410156 8.257812 -0.882812 7.5625 -0.5 C 6.875 -0.113281 6.097656 0.078125 5.234375 0.078125 Z M 5.234375 -0.75 C 5.921875 -0.75 6.539062 -0.90625 7.09375 -1.21875 C 7.65625 -1.53125 8.09375 -1.960938 8.40625 -2.515625 C 8.71875 -3.066406 8.875 -3.679688 8.875 -4.359375 C 8.875 -5.035156 8.71875 -5.648438 8.40625 -6.203125 C 8.09375 -6.753906 7.65625 -7.1875 7.09375 -7.5 C 6.539062 -7.8125 5.921875 -7.96875 5.234375 -7.96875 C 4.546875 -7.96875 3.921875 -7.8125 3.359375 -7.5 C 2.796875 -7.1875 2.351562 -6.753906 2.03125 -6.203125 C 1.71875 -5.648438 1.5625 -5.035156 1.5625 -4.359375 C 1.5625 -3.679688 1.71875 -3.066406 2.03125 -2.515625 C 2.351562 -1.960938 2.796875 -1.53125 3.359375 -1.21875 C 3.921875 -0.90625 4.546875 -0.75 5.234375 -0.75 Z M 5.234375 -0.75 "/></g></g></g><g fill="#000000" fill-opacity="1"><g transform="translate(204.253194, 314.321288)"><g><path d="M 3.109375 -7.921875 L 0.046875 -7.921875 L 0.046875 -8.71875 L 7.09375 -8.71875 L 7.09375 -7.921875 L 4.03125 -7.921875 L 4.03125 0 L 3.109375 0 Z M 3.109375 -7.921875 "/></g></g></g><g fill="#000000" fill-opacity="1"><g transform="translate(216.923851, 314.321288)"><g><path d="M 6.890625 -2.328125 L 2.03125 -2.328125 L 0.984375 0 L 0.03125 0 L 4.015625 -8.71875 L 4.921875 -8.71875 L 8.90625 0 L 7.9375 0 Z M 6.546875 -3.078125 L 4.453125 -7.765625 L 2.359375 -3.078125 Z M 6.546875 -3.078125 "/></g></g></g><g fill="#000000" fill-opacity="1"><g transform="translate(231.375872, 314.321288)"><g><path d="M 3.828125 0.078125 C 3.179688 0.078125 2.5625 -0.0234375 1.96875 -0.234375 C 1.375 -0.441406 0.910156 -0.71875 0.578125 -1.0625 L 0.953125 -1.765625 C 1.265625 -1.453125 1.679688 -1.195312 2.203125 -1 C 2.722656 -0.800781 3.265625 -0.703125 3.828125 -0.703125 C 4.609375 -0.703125 5.191406 -0.84375 5.578125 -1.125 C 5.972656 -1.414062 6.171875 -1.789062 6.171875 -2.25 C 6.171875 -2.601562 6.0625 -2.882812 5.84375 -3.09375 C 5.632812 -3.300781 5.375 -3.457031 5.0625 -3.5625 C 4.757812 -3.675781 4.332031 -3.800781 3.78125 -3.9375 C 3.125 -4.101562 2.597656 -4.257812 2.203125 -4.40625 C 1.816406 -4.5625 1.484375 -4.796875 1.203125 -5.109375 C 0.929688 -5.429688 0.796875 -5.863281 0.796875 -6.40625 C 0.796875 -6.84375 0.910156 -7.238281 1.140625 -7.59375 C 1.378906 -7.957031 1.738281 -8.25 2.21875 -8.46875 C 2.695312 -8.6875 3.296875 -8.796875 4.015625 -8.796875 C 4.503906 -8.796875 4.988281 -8.722656 5.46875 -8.578125 C 5.945312 -8.441406 6.363281 -8.253906 6.71875 -8.015625 L 6.40625 -7.28125 C 6.039062 -7.519531 5.648438 -7.695312 5.234375 -7.8125 C 4.816406 -7.9375 4.410156 -8 4.015625 -8 C 3.242188 -8 2.664062 -7.851562 2.28125 -7.5625 C 1.894531 -7.269531 1.703125 -6.890625 1.703125 -6.421875 C 1.703125 -6.078125 1.804688 -5.796875 2.015625 -5.578125 C 2.234375 -5.367188 2.5 -5.207031 2.8125 -5.09375 C 3.132812 -4.988281 3.566406 -4.867188 4.109375 -4.734375 C 4.742188 -4.578125 5.257812 -4.421875 5.65625 -4.265625 C 6.050781 -4.109375 6.382812 -3.875 6.65625 -3.5625 C 6.9375 -3.25 7.078125 -2.828125 7.078125 -2.296875 C 7.078125 -1.859375 6.957031 -1.457031 6.71875 -1.09375 C 6.476562 -0.738281 6.113281 -0.453125 5.625 -0.234375 C 5.132812 -0.0234375 4.535156 0.078125 3.828125 0.078125 Z M 3.828125 0.078125 "/></g></g></g><g fill="#000000" fill-opacity="1"><g transform="translate(244.55728, 314.321288)"><g/></g></g><g fill="#000000" fill-opacity="1"><g transform="translate(253.341329, 314.321288)"><g><path d="M 4.40625 -3.015625 L 4.40625 0 L 3.5 0 L 3.5 -3.015625 L 0.015625 -8.71875 L 1 -8.71875 L 3.984375 -3.828125 L 6.96875 -8.71875 L 7.890625 -8.71875 Z M 4.40625 -3.015625 "/></g></g></g><g fill="#000000" fill-opacity="1"><g transform="translate(266.771863, 314.321288)"><g/></g></g><g fill="#000000" fill-opacity="1"><g transform="translate(275.555912, 314.321288)"><g><path d="M 6.890625 -2.328125 L 2.03125 -2.328125 L 0.984375 0 L 0.03125 0 L 4.015625 -8.71875 L 4.921875 -8.71875 L 8.90625 0 L 7.9375 0 Z M 6.546875 -3.078125 L 4.453125 -7.765625 L 2.359375 -3.078125 Z M 6.546875 -3.078125 "/></g></g></g><g fill="#000000" fill-opacity="1"><g transform="translate(290.007945, 314.321288)"><g><path d="M 7.375 0 L 5.375 -2.796875 C 5.15625 -2.773438 4.925781 -2.765625 4.6875 -2.765625 L 2.34375 -2.765625 L 2.34375 0 L 1.421875 0 L 1.421875 -8.71875 L 4.6875 -8.71875 C 5.789062 -8.71875 6.660156 -8.453125 7.296875 -7.921875 C 7.929688 -7.390625 8.25 -6.660156 8.25 -5.734375 C 8.25 -5.046875 8.070312 -4.46875 7.71875 -4 C 7.375 -3.53125 6.882812 -3.191406 6.25 -2.984375 L 8.375 0 Z M 4.65625 -3.546875 C 5.519531 -3.546875 6.179688 -3.734375 6.640625 -4.109375 C 7.097656 -4.492188 7.328125 -5.035156 7.328125 -5.734375 C 7.328125 -6.429688 7.097656 -6.96875 6.640625 -7.34375 C 6.179688 -7.726562 5.519531 -7.921875 4.65625 -7.921875 L 2.34375 -7.921875 L 2.34375 -3.546875 Z M 4.65625 -3.546875 "/></g></g></g><g fill="#000000" fill-opacity="1"><g transform="translate(304.534709, 314.321288)"><g><path d="M 3.109375 -7.921875 L 0.046875 -7.921875 L 0.046875 -8.71875 L 7.09375 -8.71875 L 7.09375 -7.921875 L 4.03125 -7.921875 L 4.03125 0 L 3.109375 0 Z M 3.109375 -7.921875 "/></g></g></g><g fill="#000000" fill-opacity="1"><g transform="translate(317.205377, 314.321288)"><g><path d="M 7.578125 -0.796875 L 7.578125 0 L 1.421875 0 L 1.421875 -8.71875 L 7.390625 -8.71875 L 7.390625 -7.921875 L 2.34375 -7.921875 L 2.34375 -4.8125 L 6.84375 -4.8125 L 6.84375 -4.03125 L 2.34375 -4.03125 L 2.34375 -0.796875 Z M 7.578125 -0.796875 "/></g></g></g><g fill="#000000" fill-opacity="1"><g transform="translate(82.779888, 298.7875)"><g><path d="M 17.515625 -1.328125 C 17.109375 -0.722656 16.703125 -0.285156 16.296875 -0.015625 C 15.890625 0.242188 15.351562 0.375 14.6875 0.375 C 13.957031 0.375 13.359375 0.160156 12.890625 -0.265625 C 12.421875 -0.691406 12.070312 -1.4375 11.84375 -2.5 L 11.25 -5.15625 C 11.039062 -6.070312 10.84375 -6.773438 10.65625 -7.265625 C 10.46875 -7.765625 10.1875 -8.164062 9.8125 -8.46875 C 9.445312 -8.769531 8.925781 -8.921875 8.25 -8.921875 L 5.734375 -8.921875 L 5.734375 -2.8125 C 5.734375 -2.144531 5.785156 -1.660156 5.890625 -1.359375 C 5.992188 -1.054688 6.191406 -0.847656 6.484375 -0.734375 C 6.773438 -0.628906 7.242188 -0.5625 7.890625 -0.53125 L 7.890625 0 C 7.066406 -0.0507812 5.941406 -0.078125 4.515625 -0.078125 C 2.992188 -0.078125 1.859375 -0.0507812 1.109375 0 L 1.109375 -0.53125 C 1.753906 -0.5625 2.222656 -0.628906 2.515625 -0.734375 C 2.804688 -0.847656 3.003906 -1.054688 3.109375 -1.359375 C 3.210938 -1.660156 3.265625 -2.144531 3.265625 -2.8125 L 3.265625 -15.984375 C 3.265625 -16.648438 3.210938 -17.132812 3.109375 -17.4375 C 3.003906 -17.738281 2.804688 -17.941406 2.515625 -18.046875 C 2.222656 -18.160156 1.753906 -18.234375 1.109375 -18.265625 L 1.109375 -18.796875 C 1.859375 -18.742188 2.941406 -18.71875 4.359375 -18.71875 L 7.21875 -18.734375 C 7.550781 -18.753906 7.929688 -18.765625 8.359375 -18.765625 C 10.410156 -18.765625 11.988281 -18.332031 13.09375 -17.46875 C 14.207031 -16.613281 14.765625 -15.507812 14.765625 -14.15625 C 14.765625 -13.457031 14.597656 -12.757812 14.265625 -12.0625 C 13.941406 -11.363281 13.394531 -10.734375 12.625 -10.171875 C 11.851562 -9.617188 10.847656 -9.242188 9.609375 -9.046875 L 9.921875 -9 C 11.097656 -8.800781 11.953125 -8.445312 12.484375 -7.9375 C 13.015625 -7.425781 13.398438 -6.613281 13.640625 -5.5 L 14.3125 -2.78125 C 14.488281 -1.96875 14.671875 -1.398438 14.859375 -1.078125 C 15.054688 -0.765625 15.320312 -0.609375 15.65625 -0.609375 C 15.957031 -0.609375 16.207031 -0.6875 16.40625 -0.84375 C 16.613281 -1.007812 16.851562 -1.269531 17.125 -1.625 Z M 7.703125 -18.265625 C 7.148438 -18.265625 6.734375 -18.203125 6.453125 -18.078125 C 6.179688 -17.953125 5.992188 -17.726562 5.890625 -17.40625 C 5.785156 -17.09375 5.734375 -16.617188 5.734375 -15.984375 L 5.734375 -9.453125 L 7.515625 -9.453125 C 9.265625 -9.453125 10.46875 -9.835938 11.125 -10.609375 C 11.78125 -11.390625 12.109375 -12.472656 12.109375 -13.859375 C 12.109375 -15.304688 11.757812 -16.398438 11.0625 -17.140625 C 10.375 -17.890625 9.253906 -18.265625 7.703125 -18.265625 Z M 7.703125 -18.265625 "/></g></g></g><g fill="#000000" fill-opacity="1"><g transform="translate(99.979727, 298.7875)"><g><path d="M 14.703125 -3.390625 C 14.703125 -2.390625 14.765625 -1.257812 14.890625 0 C 13.691406 -0.0507812 11.664062 -0.078125 8.8125 -0.078125 C 5.414062 -0.078125 2.847656 -0.0507812 1.109375 0 L 1.109375 -0.53125 C 1.753906 -0.5625 2.222656 -0.628906 2.515625 -0.734375 C 2.804688 -0.847656 3.003906 -1.054688 3.109375 -1.359375 C 3.210938 -1.660156 3.265625 -2.144531 3.265625 -2.8125 L 3.265625 -15.984375 C 3.265625 -16.648438 3.210938 -17.132812 3.109375 -17.4375 C 3.003906 -17.738281 2.804688 -17.941406 2.515625 -18.046875 C 2.222656 -18.160156 1.753906 -18.234375 1.109375 -18.265625 L 1.109375 -18.796875 C 2.847656 -18.742188 5.414062 -18.71875 8.8125 -18.71875 C 11.414062 -18.71875 13.265625 -18.742188 14.359375 -18.796875 C 14.234375 -17.628906 14.171875 -16.582031 14.171875 -15.65625 C 14.171875 -14.96875 14.195312 -14.421875 14.25 -14.015625 L 13.640625 -14.015625 C 13.515625 -15.171875 13.351562 -16.023438 13.15625 -16.578125 C 12.96875 -17.140625 12.644531 -17.546875 12.1875 -17.796875 C 11.726562 -18.054688 11.03125 -18.1875 10.09375 -18.1875 L 7.890625 -18.1875 C 7.242188 -18.1875 6.773438 -18.132812 6.484375 -18.03125 C 6.191406 -17.9375 5.992188 -17.738281 5.890625 -17.4375 C 5.785156 -17.132812 5.734375 -16.648438 5.734375 -15.984375 L 5.734375 -9.71875 L 7.484375 -9.71875 C 8.109375 -9.71875 8.585938 -9.863281 8.921875 -10.15625 C 9.253906 -10.445312 9.476562 -10.789062 9.59375 -11.1875 C 9.707031 -11.582031 9.800781 -12.082031 9.875 -12.6875 L 9.953125 -13.21875 L 10.5625 -13.21875 C 10.507812 -12.476562 10.484375 -11.644531 10.484375 -10.71875 L 10.484375 -9.453125 C 10.484375 -8.546875 10.535156 -7.289062 10.640625 -5.6875 L 10.03125 -5.6875 C 10.019531 -5.800781 9.96875 -6.222656 9.875 -6.953125 C 9.789062 -7.691406 9.546875 -8.25 9.140625 -8.625 C 8.742188 -9 8.191406 -9.1875 7.484375 -9.1875 L 5.734375 -9.1875 L 5.734375 -2.8125 C 5.734375 -2.144531 5.785156 -1.660156 5.890625 -1.359375 C 5.992188 -1.054688 6.191406 -0.851562 6.484375 -0.75 C 6.773438 -0.65625 7.242188 -0.609375 7.890625 -0.609375 L 9.828125 -0.609375 C 10.921875 -0.609375 11.753906 -0.753906 12.328125 -1.046875 C 12.898438 -1.335938 13.316406 -1.804688 13.578125 -2.453125 C 13.847656 -3.097656 14.046875 -4.050781 14.171875 -5.3125 L 14.78125 -5.3125 C 14.726562 -4.832031 14.703125 -4.191406 14.703125 -3.390625 Z M 14.703125 -3.390625 "/></g></g></g><g fill="#000000" fill-opacity="1"><g transform="translate(116.144392, 298.7875)"><g><path d="M 15.71875 -18.796875 C 15.59375 -17.535156 15.53125 -16.398438 15.53125 -15.390625 C 15.53125 -14.503906 15.554688 -13.78125 15.609375 -13.21875 L 15 -13.21875 C 14.851562 -14.582031 14.675781 -15.59375 14.46875 -16.25 C 14.257812 -16.914062 13.890625 -17.40625 13.359375 -17.71875 C 12.828125 -18.03125 12.007812 -18.1875 10.90625 -18.1875 L 9.484375 -18.1875 L 9.484375 -3.078125 C 9.484375 -2.335938 9.550781 -1.796875 9.6875 -1.453125 C 9.832031 -1.117188 10.082031 -0.890625 10.4375 -0.765625 C 10.789062 -0.640625 11.363281 -0.5625 12.15625 -0.53125 L 12.15625 0 C 11.238281 -0.0507812 9.9375 -0.078125 8.25 -0.078125 C 6.476562 -0.078125 5.171875 -0.0507812 4.328125 0 L 4.328125 -0.53125 C 5.117188 -0.5625 5.691406 -0.640625 6.046875 -0.765625 C 6.398438 -0.890625 6.648438 -1.117188 6.796875 -1.453125 C 6.941406 -1.796875 7.015625 -2.335938 7.015625 -3.078125 L 7.015625 -18.1875 L 5.578125 -18.1875 C 4.472656 -18.1875 3.65625 -18.03125 3.125 -17.71875 C 2.601562 -17.40625 2.234375 -16.914062 2.015625 -16.25 C 1.804688 -15.59375 1.628906 -14.582031 1.484375 -13.21875 L 0.875 -13.21875 C 0.925781 -13.78125 0.953125 -14.503906 0.953125 -15.390625 C 0.953125 -16.398438 0.890625 -17.535156 0.765625 -18.796875 C 2.234375 -18.742188 4.726562 -18.71875 8.25 -18.71875 C 11.757812 -18.71875 14.25 -18.742188 15.71875 -18.796875 Z M 15.71875 -18.796875 "/></g></g></g><g fill="#000000" fill-opacity="1"><g transform="translate(132.627568, 298.7875)"><g><path d="M 17.515625 -1.328125 C 17.109375 -0.722656 16.703125 -0.285156 16.296875 -0.015625 C 15.890625 0.242188 15.351562 0.375 14.6875 0.375 C 13.957031 0.375 13.359375 0.160156 12.890625 -0.265625 C 12.421875 -0.691406 12.070312 -1.4375 11.84375 -2.5 L 11.25 -5.15625 C 11.039062 -6.070312 10.84375 -6.773438 10.65625 -7.265625 C 10.46875 -7.765625 10.1875 -8.164062 9.8125 -8.46875 C 9.445312 -8.769531 8.925781 -8.921875 8.25 -8.921875 L 5.734375 -8.921875 L 5.734375 -2.8125 C 5.734375 -2.144531 5.785156 -1.660156 5.890625 -1.359375 C 5.992188 -1.054688 6.191406 -0.847656 6.484375 -0.734375 C 6.773438 -0.628906 7.242188 -0.5625 7.890625 -0.53125 L 7.890625 0 C 7.066406 -0.0507812 5.941406 -0.078125 4.515625 -0.078125 C 2.992188 -0.078125 1.859375 -0.0507812 1.109375 0 L 1.109375 -0.53125 C 1.753906 -0.5625 2.222656 -0.628906 2.515625 -0.734375 C 2.804688 -0.847656 3.003906 -1.054688 3.109375 -1.359375 C 3.210938 -1.660156 3.265625 -2.144531 3.265625 -2.8125 L 3.265625 -15.984375 C 3.265625 -16.648438 3.210938 -17.132812 3.109375 -17.4375 C 3.003906 -17.738281 2.804688 -17.941406 2.515625 -18.046875 C 2.222656 -18.160156 1.753906 -18.234375 1.109375 -18.265625 L 1.109375 -18.796875 C 1.859375 -18.742188 2.941406 -18.71875 4.359375 -18.71875 L 7.21875 -18.734375 C 7.550781 -18.753906 7.929688 -18.765625 8.359375 -18.765625 C 10.410156 -18.765625 11.988281 -18.332031 13.09375 -17.46875 C 14.207031 -16.613281 14.765625 -15.507812 14.765625 -14.15625 C 14.765625 -13.457031 14.597656 -12.757812 14.265625 -12.0625 C 13.941406 -11.363281 13.394531 -10.734375 12.625 -10.171875 C 11.851562 -9.617188 10.847656 -9.242188 9.609375 -9.046875 L 9.921875 -9 C 11.097656 -8.800781 11.953125 -8.445312 12.484375 -7.9375 C 13.015625 -7.425781 13.398438 -6.613281 13.640625 -5.5 L 14.3125 -2.78125 C 14.488281 -1.96875 14.671875 -1.398438 14.859375 -1.078125 C 15.054688 -0.765625 15.320312 -0.609375 15.65625 -0.609375 C 15.957031 -0.609375 16.207031 -0.6875 16.40625 -0.84375 C 16.613281 -1.007812 16.851562 -1.269531 17.125 -1.625 Z M 7.703125 -18.265625 C 7.148438 -18.265625 6.734375 -18.203125 6.453125 -18.078125 C 6.179688 -17.953125 5.992188 -17.726562 5.890625 -17.40625 C 5.785156 -17.09375 5.734375 -16.617188 5.734375 -15.984375 L 5.734375 -9.453125 L 7.515625 -9.453125 C 9.265625 -9.453125 10.46875 -9.835938 11.125 -10.609375 C 11.78125 -11.390625 12.109375 -12.472656 12.109375 -13.859375 C 12.109375 -15.304688 11.757812 -16.398438 11.0625 -17.140625 C 10.375 -17.890625 9.253906 -18.265625 7.703125 -18.265625 Z M 7.703125 -18.265625 "/></g></g></g><g fill="#000000" fill-opacity="1"><g transform="translate(149.827408, 298.7875)"><g><path d="M 15.046875 -2.234375 C 15.472656 -1.128906 16.085938 -0.5625 16.890625 -0.53125 L 16.890625 0 C 16.179688 -0.0507812 15.234375 -0.078125 14.046875 -0.078125 C 12.523438 -0.078125 11.390625 -0.0507812 10.640625 0 L 10.640625 -0.53125 C 11.316406 -0.5625 11.800781 -0.644531 12.09375 -0.78125 C 12.382812 -0.914062 12.53125 -1.160156 12.53125 -1.515625 C 12.53125 -1.816406 12.425781 -2.234375 12.21875 -2.765625 L 10.59375 -7.109375 L 4.171875 -7.109375 L 3.078125 -4.296875 C 2.722656 -3.335938 2.546875 -2.613281 2.546875 -2.125 C 2.546875 -1.570312 2.734375 -1.171875 3.109375 -0.921875 C 3.492188 -0.679688 4.078125 -0.550781 4.859375 -0.53125 L 4.859375 0 C 3.847656 -0.0507812 2.832031 -0.078125 1.8125 -0.078125 C 1.007812 -0.078125 0.34375 -0.0507812 -0.1875 0 L -0.1875 -0.53125 C 0.695312 -0.738281 1.394531 -1.507812 1.90625 -2.84375 L 8.15625 -18.921875 L 8.578125 -18.921875 Z M 10.375 -7.640625 L 7.40625 -15.578125 L 4.375 -7.640625 Z M 10.375 -7.640625 "/></g></g></g><g fill="#000000" fill-opacity="1"><g transform="translate(166.549468, 298.7875)"><g><path d="M 15.71875 -18.796875 C 15.59375 -17.535156 15.53125 -16.398438 15.53125 -15.390625 C 15.53125 -14.503906 15.554688 -13.78125 15.609375 -13.21875 L 15 -13.21875 C 14.851562 -14.582031 14.675781 -15.59375 14.46875 -16.25 C 14.257812 -16.914062 13.890625 -17.40625 13.359375 -17.71875 C 12.828125 -18.03125 12.007812 -18.1875 10.90625 -18.1875 L 9.484375 -18.1875 L 9.484375 -3.078125 C 9.484375 -2.335938 9.550781 -1.796875 9.6875 -1.453125 C 9.832031 -1.117188 10.082031 -0.890625 10.4375 -0.765625 C 10.789062 -0.640625 11.363281 -0.5625 12.15625 -0.53125 L 12.15625 0 C 11.238281 -0.0507812 9.9375 -0.078125 8.25 -0.078125 C 6.476562 -0.078125 5.171875 -0.0507812 4.328125 0 L 4.328125 -0.53125 C 5.117188 -0.5625 5.691406 -0.640625 6.046875 -0.765625 C 6.398438 -0.890625 6.648438 -1.117188 6.796875 -1.453125 C 6.941406 -1.796875 7.015625 -2.335938 7.015625 -3.078125 L 7.015625 -18.1875 L 5.578125 -18.1875 C 4.472656 -18.1875 3.65625 -18.03125 3.125 -17.71875 C 2.601562 -17.40625 2.234375 -16.914062 2.015625 -16.25 C 1.804688 -15.59375 1.628906 -14.582031 1.484375 -13.21875 L 0.875 -13.21875 C 0.925781 -13.78125 0.953125 -14.503906 0.953125 -15.390625 C 0.953125 -16.398438 0.890625 -17.535156 0.765625 -18.796875 C 2.234375 -18.742188 4.726562 -18.71875 8.25 -18.71875 C 11.757812 -18.71875 14.25 -18.742188 15.71875 -18.796875 Z M 15.71875 -18.796875 "/></g></g></g><g fill="#000000" fill-opacity="1"><g transform="translate(183.032644, 298.7875)"><g><path d="M 9.84375 -19.171875 C 11.53125 -19.171875 13.003906 -18.789062 14.265625 -18.03125 C 15.535156 -17.269531 16.519531 -16.164062 17.21875 -14.71875 C 17.914062 -13.28125 18.265625 -11.5625 18.265625 -9.5625 C 18.265625 -7.613281 17.90625 -5.882812 17.1875 -4.375 C 16.46875 -2.875 15.46875 -1.707031 14.1875 -0.875 C 12.90625 -0.0390625 11.453125 0.375 9.828125 0.375 C 8.140625 0.375 6.660156 -0.00390625 5.390625 -0.765625 C 4.128906 -1.523438 3.148438 -2.625 2.453125 -4.0625 C 1.753906 -5.507812 1.40625 -7.234375 1.40625 -9.234375 C 1.40625 -11.179688 1.765625 -12.90625 2.484375 -14.40625 C 3.203125 -15.914062 4.203125 -17.085938 5.484375 -17.921875 C 6.765625 -18.753906 8.21875 -19.171875 9.84375 -19.171875 Z M 9.75 -18.6875 C 8.613281 -18.6875 7.613281 -18.289062 6.75 -17.5 C 5.894531 -16.71875 5.234375 -15.617188 4.765625 -14.203125 C 4.296875 -12.785156 4.0625 -11.164062 4.0625 -9.34375 C 4.0625 -7.5 4.320312 -5.878906 4.84375 -4.484375 C 5.363281 -3.085938 6.066406 -2.007812 6.953125 -1.25 C 7.835938 -0.488281 8.828125 -0.109375 9.921875 -0.109375 C 11.054688 -0.109375 12.050781 -0.5 12.90625 -1.28125 C 13.769531 -2.070312 14.4375 -3.175781 14.90625 -4.59375 C 15.375 -6.007812 15.609375 -7.628906 15.609375 -9.453125 C 15.609375 -11.296875 15.347656 -12.914062 14.828125 -14.3125 C 14.304688 -15.707031 13.601562 -16.785156 12.71875 -17.546875 C 11.832031 -18.304688 10.84375 -18.6875 9.75 -18.6875 Z M 9.75 -18.6875 "/></g></g></g><g fill="#000000" fill-opacity="1"><g transform="translate(202.700975, 298.7875)"><g><path d="M 6.796875 -19.09375 C 7.578125 -19.09375 8.191406 -19.003906 8.640625 -18.828125 C 9.085938 -18.660156 9.550781 -18.421875 10.03125 -18.109375 C 10.425781 -17.859375 10.726562 -17.734375 10.9375 -17.734375 C 11.09375 -17.734375 11.210938 -17.828125 11.296875 -18.015625 C 11.390625 -18.203125 11.460938 -18.5 11.515625 -18.90625 L 12.125 -18.90625 C 12.039062 -17.875 12 -16.066406 12 -13.484375 L 11.390625 -13.484375 C 11.285156 -14.921875 10.875 -16.128906 10.15625 -17.109375 C 9.4375 -18.085938 8.394531 -18.578125 7.03125 -18.578125 C 6.070312 -18.578125 5.289062 -18.289062 4.6875 -17.71875 C 4.09375 -17.144531 3.796875 -16.40625 3.796875 -15.5 C 3.796875 -14.832031 3.945312 -14.25 4.25 -13.75 C 4.5625 -13.257812 4.957031 -12.835938 5.4375 -12.484375 C 5.914062 -12.128906 6.597656 -11.675781 7.484375 -11.125 L 8.25 -10.640625 C 9.363281 -9.953125 10.242188 -9.347656 10.890625 -8.828125 C 11.535156 -8.304688 12.050781 -7.707031 12.4375 -7.03125 C 12.832031 -6.363281 13.03125 -5.578125 13.03125 -4.671875 C 13.03125 -3.054688 12.5 -1.8125 11.4375 -0.9375 C 10.375 -0.0625 9.03125 0.375 7.40625 0.375 C 6.550781 0.375 5.851562 0.285156 5.3125 0.109375 C 4.78125 -0.0664062 4.265625 -0.304688 3.765625 -0.609375 C 3.378906 -0.859375 3.078125 -0.984375 2.859375 -0.984375 C 2.703125 -0.984375 2.578125 -0.890625 2.484375 -0.703125 C 2.398438 -0.515625 2.332031 -0.21875 2.28125 0.1875 L 1.671875 0.1875 C 1.742188 -0.789062 1.78125 -2.914062 1.78125 -6.1875 L 2.390625 -6.1875 C 2.515625 -4.394531 2.957031 -2.941406 3.71875 -1.828125 C 4.476562 -0.710938 5.644531 -0.15625 7.21875 -0.15625 C 8.175781 -0.15625 8.988281 -0.453125 9.65625 -1.046875 C 10.332031 -1.640625 10.671875 -2.519531 10.671875 -3.6875 C 10.671875 -4.675781 10.335938 -5.515625 9.671875 -6.203125 C 9.015625 -6.898438 7.96875 -7.679688 6.53125 -8.546875 C 5.488281 -9.179688 4.644531 -9.742188 4 -10.234375 C 3.351562 -10.734375 2.828125 -11.332031 2.421875 -12.03125 C 2.015625 -12.738281 1.8125 -13.5625 1.8125 -14.5 C 1.8125 -15.976562 2.285156 -17.113281 3.234375 -17.90625 C 4.191406 -18.695312 5.378906 -19.09375 6.796875 -19.09375 Z M 6.796875 -19.09375 "/></g></g></g><g fill="#000000" fill-opacity="1"><g transform="translate(217.034172, 298.7875)"><g/></g></g><g fill="#000000" fill-opacity="1"><g transform="translate(223.643363, 298.7875)"><g><path d="M 17.515625 -1.328125 C 17.109375 -0.722656 16.703125 -0.285156 16.296875 -0.015625 C 15.890625 0.242188 15.351562 0.375 14.6875 0.375 C 13.957031 0.375 13.359375 0.160156 12.890625 -0.265625 C 12.421875 -0.691406 12.070312 -1.4375 11.84375 -2.5 L 11.25 -5.15625 C 11.039062 -6.070312 10.84375 -6.773438 10.65625 -7.265625 C 10.46875 -7.765625 10.1875 -8.164062 9.8125 -8.46875 C 9.445312 -8.769531 8.925781 -8.921875 8.25 -8.921875 L 5.734375 -8.921875 L 5.734375 -2.8125 C 5.734375 -2.144531 5.785156 -1.660156 5.890625 -1.359375 C 5.992188 -1.054688 6.191406 -0.847656 6.484375 -0.734375 C 6.773438 -0.628906 7.242188 -0.5625 7.890625 -0.53125 L 7.890625 0 C 7.066406 -0.0507812 5.941406 -0.078125 4.515625 -0.078125 C 2.992188 -0.078125 1.859375 -0.0507812 1.109375 0 L 1.109375 -0.53125 C 1.753906 -0.5625 2.222656 -0.628906 2.515625 -0.734375 C 2.804688 -0.847656 3.003906 -1.054688 3.109375 -1.359375 C 3.210938 -1.660156 3.265625 -2.144531 3.265625 -2.8125 L 3.265625 -15.984375 C 3.265625 -16.648438 3.210938 -17.132812 3.109375 -17.4375 C 3.003906 -17.738281 2.804688 -17.941406 2.515625 -18.046875 C 2.222656 -18.160156 1.753906 -18.234375 1.109375 -18.265625 L 1.109375 -18.796875 C 1.859375 -18.742188 2.941406 -18.71875 4.359375 -18.71875 L 7.21875 -18.734375 C 7.550781 -18.753906 7.929688 -18.765625 8.359375 -18.765625 C 10.410156 -18.765625 11.988281 -18.332031 13.09375 -17.46875 C 14.207031 -16.613281 14.765625 -15.507812 14.765625 -14.15625 C 14.765625 -13.457031 14.597656 -12.757812 14.265625 -12.0625 C 13.941406 -11.363281 13.394531 -10.734375 12.625 -10.171875 C 11.851562 -9.617188 10.847656 -9.242188 9.609375 -9.046875 L 9.921875 -9 C 11.097656 -8.800781 11.953125 -8.445312 12.484375 -7.9375 C 13.015625 -7.425781 13.398438 -6.613281 13.640625 -5.5 L 14.3125 -2.78125 C 14.488281 -1.96875 14.671875 -1.398438 14.859375 -1.078125 C 15.054688 -0.765625 15.320312 -0.609375 15.65625 -0.609375 C 15.957031 -0.609375 16.207031 -0.6875 16.40625 -0.84375 C 16.613281 -1.007812 16.851562 -1.269531 17.125 -1.625 Z M 7.703125 -18.265625 C 7.148438 -18.265625 6.734375 -18.203125 6.453125 -18.078125 C 6.179688 -17.953125 5.992188 -17.726562 5.890625 -17.40625 C 5.785156 -17.09375 5.734375 -16.617188 5.734375 -15.984375 L 5.734375 -9.453125 L 7.515625 -9.453125 C 9.265625 -9.453125 10.46875 -9.835938 11.125 -10.609375 C 11.78125 -11.390625 12.109375 -12.472656 12.109375 -13.859375 C 12.109375 -15.304688 11.757812 -16.398438 11.0625 -17.140625 C 10.375 -17.890625 9.253906 -18.265625 7.703125 -18.265625 Z M 7.703125 -18.265625 "/></g></g></g><g fill="#000000" fill-opacity="1"><g transform="translate(240.843203, 298.7875)"><g><path d="M 9.84375 -19.171875 C 11.53125 -19.171875 13.003906 -18.789062 14.265625 -18.03125 C 15.535156 -17.269531 16.519531 -16.164062 17.21875 -14.71875 C 17.914062 -13.28125 18.265625 -11.5625 18.265625 -9.5625 C 18.265625 -7.613281 17.90625 -5.882812 17.1875 -4.375 C 16.46875 -2.875 15.46875 -1.707031 14.1875 -0.875 C 12.90625 -0.0390625 11.453125 0.375 9.828125 0.375 C 8.140625 0.375 6.660156 -0.00390625 5.390625 -0.765625 C 4.128906 -1.523438 3.148438 -2.625 2.453125 -4.0625 C 1.753906 -5.507812 1.40625 -7.234375 1.40625 -9.234375 C 1.40625 -11.179688 1.765625 -12.90625 2.484375 -14.40625 C 3.203125 -15.914062 4.203125 -17.085938 5.484375 -17.921875 C 6.765625 -18.753906 8.21875 -19.171875 9.84375 -19.171875 Z M 9.75 -18.6875 C 8.613281 -18.6875 7.613281 -18.289062 6.75 -17.5 C 5.894531 -16.71875 5.234375 -15.617188 4.765625 -14.203125 C 4.296875 -12.785156 4.0625 -11.164062 4.0625 -9.34375 C 4.0625 -7.5 4.320312 -5.878906 4.84375 -4.484375 C 5.363281 -3.085938 6.066406 -2.007812 6.953125 -1.25 C 7.835938 -0.488281 8.828125 -0.109375 9.921875 -0.109375 C 11.054688 -0.109375 12.050781 -0.5 12.90625 -1.28125 C 13.769531 -2.070312 14.4375 -3.175781 14.90625 -4.59375 C 15.375 -6.007812 15.609375 -7.628906 15.609375 -9.453125 C 15.609375 -11.296875 15.347656 -12.914062 14.828125 -14.3125 C 14.304688 -15.707031 13.601562 -16.785156 12.71875 -17.546875 C 11.832031 -18.304688 10.84375 -18.6875 9.75 -18.6875 Z M 9.75 -18.6875 "/></g></g></g><g fill="#000000" fill-opacity="1"><g transform="translate(260.511533, 298.7875)"><g><path d="M 22 -18.265625 C 21.363281 -18.234375 20.898438 -18.160156 20.609375 -18.046875 C 20.316406 -17.941406 20.117188 -17.738281 20.015625 -17.4375 C 19.910156 -17.132812 19.859375 -16.648438 19.859375 -15.984375 L 19.859375 -2.8125 C 19.859375 -2.144531 19.910156 -1.660156 20.015625 -1.359375 C 20.117188 -1.054688 20.316406 -0.847656 20.609375 -0.734375 C 20.898438 -0.628906 21.363281 -0.5625 22 -0.53125 L 22 0 C 21.1875 -0.0507812 20.066406 -0.078125 18.640625 -0.078125 C 17.117188 -0.078125 15.984375 -0.0507812 15.234375 0 L 15.234375 -0.53125 C 15.867188 -0.5625 16.332031 -0.628906 16.625 -0.734375 C 16.914062 -0.847656 17.113281 -1.054688 17.21875 -1.359375 C 17.332031 -1.660156 17.390625 -2.144531 17.390625 -2.8125 L 17.390625 -17.046875 L 10.984375 0.125 L 10.5625 0.125 L 3.875 -17.09375 L 3.875 -3.078125 C 3.875 -2.390625 3.929688 -1.875 4.046875 -1.53125 C 4.160156 -1.195312 4.382812 -0.953125 4.71875 -0.796875 C 5.0625 -0.648438 5.585938 -0.5625 6.296875 -0.53125 L 6.296875 0 C 5.660156 -0.0507812 4.753906 -0.078125 3.578125 -0.078125 C 2.515625 -0.078125 1.691406 -0.0507812 1.109375 0 L 1.109375 -0.53125 C 1.734375 -0.5625 2.195312 -0.648438 2.5 -0.796875 C 2.800781 -0.953125 3.003906 -1.203125 3.109375 -1.546875 C 3.210938 -1.898438 3.265625 -2.410156 3.265625 -3.078125 L 3.265625 -15.984375 C 3.265625 -16.648438 3.210938 -17.132812 3.109375 -17.4375 C 3.003906 -17.738281 2.804688 -17.941406 2.515625 -18.046875 C 2.222656 -18.160156 1.753906 -18.234375 1.109375 -18.265625 L 1.109375 -18.796875 C 1.691406 -18.742188 2.515625 -18.71875 3.578125 -18.71875 C 4.503906 -18.71875 5.257812 -18.742188 5.84375 -18.796875 L 11.6875 -3.421875 L 17.390625 -18.71875 L 18.640625 -18.71875 C 20.066406 -18.71875 21.1875 -18.742188 22 -18.796875 Z M 22 -18.265625 "/></g></g></g><g fill="#000000" fill-opacity="1"><g transform="translate(283.630463, 298.7875)"><g><path d="M 7.890625 -18.265625 C 7.242188 -18.234375 6.773438 -18.160156 6.484375 -18.046875 C 6.191406 -17.941406 5.992188 -17.738281 5.890625 -17.4375 C 5.785156 -17.132812 5.734375 -16.648438 5.734375 -15.984375 L 5.734375 -2.8125 C 5.734375 -2.144531 5.785156 -1.660156 5.890625 -1.359375 C 5.992188 -1.054688 6.191406 -0.847656 6.484375 -0.734375 C 6.773438 -0.628906 7.242188 -0.5625 7.890625 -0.53125 L 7.890625 0 C 7.066406 -0.0507812 5.941406 -0.078125 4.515625 -0.078125 C 2.992188 -0.078125 1.859375 -0.0507812 1.109375 0 L 1.109375 -0.53125 C 1.753906 -0.5625 2.222656 -0.628906 2.515625 -0.734375 C 2.804688 -0.847656 3.003906 -1.054688 3.109375 -1.359375 C 3.210938 -1.660156 3.265625 -2.144531 3.265625 -2.8125 L 3.265625 -15.984375 C 3.265625 -16.648438 3.210938 -17.132812 3.109375 -17.4375 C 3.003906 -17.738281 2.804688 -17.941406 2.515625 -18.046875 C 2.222656 -18.160156 1.753906 -18.234375 1.109375 -18.265625 L 1.109375 -18.796875 C 1.859375 -18.742188 2.992188 -18.71875 4.515625 -18.71875 C 5.929688 -18.71875 7.054688 -18.742188 7.890625 -18.796875 Z M 7.890625 -18.265625 "/></g></g></g></svg>